<mxfile host="65bd71144e">
    <diagram id="xR59Nx-GNKhP8YMmGbBa" name="Страница 1">
        <mxGraphModel dx="585" dy="374" grid="1" gridSize="10" guides="1" tooltips="1" connect="1" arrows="1" fold="1" page="1" pageScale="1" pageWidth="827" pageHeight="1169" math="0" shadow="0">
            <root>
                <mxCell id="0"/>
                <mxCell id="1" parent="0"/>
                <mxCell id="2" value="&lt;div style=&quot;color: rgb(212 , 212 , 212) ; background-color: rgb(30 , 30 , 30) ; font-family: &amp;#34;consolas&amp;#34; , &amp;#34;courier new&amp;#34; , monospace ; font-size: 14px ; line-height: 19px&quot;&gt;&lt;div&gt;c. Спроектировать сценарии (Use case)(подключение, выбор помещения, программы уборки, &lt;/div&gt;&lt;div&gt;настройка расписания, просмотр статистики..), в виде Актор – Прецедент (из первой лекции).&lt;/div&gt;&lt;/div&gt;" style="text;html=1;align=center;verticalAlign=middle;resizable=0;points=[];autosize=1;strokeColor=none;fillColor=none;" parent="1" vertex="1">
                    <mxGeometry x="59" width="710" height="40" as="geometry"/>
                </mxCell>
                <mxCell id="3" value="Пользователь" style="shape=umlActor;verticalLabelPosition=bottom;verticalAlign=top;html=1;" parent="1" vertex="1">
                    <mxGeometry x="50" y="461" width="30" height="60" as="geometry"/>
                </mxCell>
                <mxCell id="4" value="Запуск" style="ellipse;whiteSpace=wrap;html=1;" parent="1" vertex="1">
                    <mxGeometry x="530" y="361" width="110" height="50" as="geometry"/>
                </mxCell>
                <mxCell id="5" value="Выбор программы" style="ellipse;whiteSpace=wrap;html=1;" parent="1" vertex="1">
                    <mxGeometry x="340" y="361" width="110" height="50" as="geometry"/>
                </mxCell>
                <mxCell id="6" value="Выбор помещения" style="ellipse;whiteSpace=wrap;html=1;" parent="1" vertex="1">
                    <mxGeometry x="530" y="461" width="110" height="50" as="geometry"/>
                </mxCell>
                <mxCell id="7" value="Настройка расписания" style="ellipse;whiteSpace=wrap;html=1;" parent="1" vertex="1">
                    <mxGeometry x="340" y="461" width="110" height="50" as="geometry"/>
                </mxCell>
                <mxCell id="8" value="Просмотр статистики" style="ellipse;whiteSpace=wrap;html=1;" parent="1" vertex="1">
                    <mxGeometry x="230" y="610" width="110" height="50" as="geometry"/>
                </mxCell>
                <mxCell id="9" value="Регистрация аккаунта" style="ellipse;whiteSpace=wrap;html=1;" parent="1" vertex="1">
                    <mxGeometry x="150" y="501" width="110" height="50" as="geometry"/>
                </mxCell>
                <mxCell id="10" value="Вход в аккаунт" style="ellipse;whiteSpace=wrap;html=1;" parent="1" vertex="1">
                    <mxGeometry x="150" y="401" width="110" height="50" as="geometry"/>
                </mxCell>
                <mxCell id="11" value="" style="endArrow=none;html=1;exitX=1;exitY=0.3333333333333333;exitDx=0;exitDy=0;exitPerimeter=0;entryX=0;entryY=0.5;entryDx=0;entryDy=0;" parent="1" source="3" target="9" edge="1">
                    <mxGeometry width="50" height="50" relative="1" as="geometry">
                        <mxPoint x="350" y="451" as="sourcePoint"/>
                        <mxPoint x="400" y="401" as="targetPoint"/>
                    </mxGeometry>
                </mxCell>
                <mxCell id="12" value="" style="endArrow=none;html=1;entryX=0;entryY=0.5;entryDx=0;entryDy=0;" parent="1" target="10" edge="1">
                    <mxGeometry width="50" height="50" relative="1" as="geometry">
                        <mxPoint x="80" y="481" as="sourcePoint"/>
                        <mxPoint x="400" y="401" as="targetPoint"/>
                    </mxGeometry>
                </mxCell>
                <mxCell id="13" value="&amp;lt;&amp;lt;include&amp;gt;&amp;gt;" style="endArrow=open;startArrow=none;endFill=0;startFill=0;endSize=8;html=1;verticalAlign=bottom;dashed=1;labelBackgroundColor=none;exitX=0.5;exitY=0;exitDx=0;exitDy=0;entryX=0.5;entryY=1;entryDx=0;entryDy=0;" parent="1" source="9" target="10" edge="1">
                    <mxGeometry width="160" relative="1" as="geometry">
                        <mxPoint x="300" y="431" as="sourcePoint"/>
                        <mxPoint x="460" y="431" as="targetPoint"/>
                    </mxGeometry>
                </mxCell>
                <mxCell id="14" value="&amp;lt;&amp;lt;include&amp;gt;&amp;gt;" style="endArrow=open;startArrow=none;endFill=0;startFill=0;endSize=8;html=1;verticalAlign=bottom;dashed=1;labelBackgroundColor=none;exitX=1;exitY=0.5;exitDx=0;exitDy=0;entryX=0;entryY=0.5;entryDx=0;entryDy=0;" parent="1" source="10" target="5" edge="1">
                    <mxGeometry width="160" relative="1" as="geometry">
                        <mxPoint x="300" y="431" as="sourcePoint"/>
                        <mxPoint x="460" y="431" as="targetPoint"/>
                        <Array as="points">
                            <mxPoint x="260" y="386"/>
                        </Array>
                    </mxGeometry>
                </mxCell>
                <mxCell id="15" value="&amp;lt;&amp;lt;include&amp;gt;&amp;gt;" style="endArrow=open;startArrow=none;endFill=0;startFill=0;endSize=8;html=1;verticalAlign=bottom;dashed=1;labelBackgroundColor=none;entryX=0;entryY=0.5;entryDx=0;entryDy=0;exitX=1;exitY=0.5;exitDx=0;exitDy=0;" parent="1" source="5" target="4" edge="1">
                    <mxGeometry width="160" relative="1" as="geometry">
                        <mxPoint x="300" y="431" as="sourcePoint"/>
                        <mxPoint x="460" y="431" as="targetPoint"/>
                    </mxGeometry>
                </mxCell>
                <mxCell id="16" value="&amp;lt;&amp;lt;include&amp;gt;&amp;gt;" style="endArrow=open;startArrow=none;endFill=0;startFill=0;endSize=8;html=1;verticalAlign=bottom;dashed=1;labelBackgroundColor=none;exitX=1;exitY=0.5;exitDx=0;exitDy=0;entryX=0;entryY=0.5;entryDx=0;entryDy=0;" parent="1" source="10" target="7" edge="1">
                    <mxGeometry width="160" relative="1" as="geometry">
                        <mxPoint x="300" y="431" as="sourcePoint"/>
                        <mxPoint x="460" y="431" as="targetPoint"/>
                    </mxGeometry>
                </mxCell>
                <mxCell id="17" value="&amp;lt;&amp;lt;include&amp;gt;&amp;gt;" style="endArrow=open;startArrow=none;endFill=0;startFill=0;endSize=8;html=1;verticalAlign=bottom;dashed=1;labelBackgroundColor=none;exitX=1;exitY=0.5;exitDx=0;exitDy=0;" parent="1" source="10" edge="1">
                    <mxGeometry width="160" relative="1" as="geometry">
                        <mxPoint x="300" y="431" as="sourcePoint"/>
                        <mxPoint x="280" y="610" as="targetPoint"/>
                        <Array as="points">
                            <mxPoint x="260" y="500"/>
                            <mxPoint x="280" y="500"/>
                        </Array>
                    </mxGeometry>
                </mxCell>
                <mxCell id="18" value="&amp;lt;&amp;lt;extended&amp;gt;&amp;gt;" style="endArrow=open;startArrow=none;endFill=0;startFill=0;endSize=8;html=1;verticalAlign=bottom;dashed=1;labelBackgroundColor=none;exitX=0.5;exitY=1;exitDx=0;exitDy=0;entryX=0.5;entryY=0;entryDx=0;entryDy=0;" parent="1" source="5" target="7" edge="1">
                    <mxGeometry x="-0.2" y="15" width="160" relative="1" as="geometry">
                        <mxPoint x="300" y="431" as="sourcePoint"/>
                        <mxPoint x="460" y="431" as="targetPoint"/>
                        <mxPoint as="offset"/>
                    </mxGeometry>
                </mxCell>
                <mxCell id="19" value="&amp;lt;&amp;lt;extended&amp;gt;&amp;gt;" style="endArrow=open;startArrow=none;endFill=0;startFill=0;endSize=8;html=1;verticalAlign=bottom;dashed=1;labelBackgroundColor=none;exitX=0;exitY=0.5;exitDx=0;exitDy=0;entryX=1;entryY=0.5;entryDx=0;entryDy=0;" parent="1" source="6" target="5" edge="1">
                    <mxGeometry width="160" relative="1" as="geometry">
                        <mxPoint x="300" y="431" as="sourcePoint"/>
                        <mxPoint x="460" y="431" as="targetPoint"/>
                        <Array as="points"/>
                    </mxGeometry>
                </mxCell>
                <mxCell id="20" value="&amp;lt;&amp;lt;included&amp;gt;&amp;gt;" style="endArrow=open;startArrow=none;endFill=0;startFill=0;endSize=8;html=1;verticalAlign=bottom;dashed=1;labelBackgroundColor=none;exitX=1;exitY=0.5;exitDx=0;exitDy=0;entryX=0;entryY=0.5;entryDx=0;entryDy=0;" parent="1" source="7" target="6" edge="1">
                    <mxGeometry width="160" relative="1" as="geometry">
                        <mxPoint x="300" y="431" as="sourcePoint"/>
                        <mxPoint x="460" y="431" as="targetPoint"/>
                    </mxGeometry>
                </mxCell>
                <mxCell id="21" value="&amp;lt;&amp;lt;included&amp;gt;&amp;gt;" style="endArrow=open;startArrow=none;endFill=0;startFill=0;endSize=8;html=1;verticalAlign=bottom;dashed=1;labelBackgroundColor=none;exitX=0.5;exitY=1;exitDx=0;exitDy=0;entryX=1;entryY=0.5;entryDx=0;entryDy=0;" parent="1" source="7" target="4" edge="1">
                    <mxGeometry width="160" relative="1" as="geometry">
                        <mxPoint x="300" y="431" as="sourcePoint"/>
                        <mxPoint x="510" y="561" as="targetPoint"/>
                        <Array as="points">
                            <mxPoint x="395" y="640"/>
                            <mxPoint x="680" y="640"/>
                            <mxPoint x="680" y="386"/>
                        </Array>
                    </mxGeometry>
                </mxCell>
                <mxCell id="22" value="&lt;div style=&quot;color: rgb(212 , 212 , 212) ; background-color: rgb(30 , 30 , 30) ; font-family: &amp;#34;consolas&amp;#34; , &amp;#34;courier new&amp;#34; , monospace ; font-size: 14px ; line-height: 19px&quot;&gt;&lt;div&gt;Назначение облачного сервиса для домашнего пылесоса:&lt;/div&gt;&lt;br&gt;&lt;div&gt;&lt;span style=&quot;color: #6796e6&quot;&gt;-&lt;/span&gt; удаленно отслеживать состояние уборки, удаленно контролировать состояние пылесоса, удаленно отдавать&amp;nbsp;&lt;/div&gt;&lt;div&gt;команды на начало и конец уборки, удаленно изменять/составлять расписание уборки;&lt;/div&gt;&lt;br&gt;&lt;div&gt;&lt;span style=&quot;color: #6796e6&quot;&gt;-&lt;/span&gt; предоставлять пользователю возможность регистрации посредством личного кабинета, сохранение в личном&amp;nbsp;&lt;/div&gt;&lt;div&gt;кабинете индивидуальных программ уборки и настроек;&lt;/div&gt;&lt;br&gt;&lt;div&gt;&lt;span style=&quot;color: #6796e6&quot;&gt;-&lt;/span&gt; предоставлять пользователю возможность регистрации продукта(пылесоса), получения технической поддержки,&amp;nbsp;&lt;/div&gt;&lt;div&gt;обновление микропрограммы пылесоса, возможность получения информации о сервисных услугах;&lt;/div&gt;&lt;/div&gt;" style="text;html=1;align=left;verticalAlign=middle;resizable=0;points=[];autosize=1;strokeColor=none;fillColor=none;" parent="1" vertex="1">
                    <mxGeometry y="60" width="830" height="200" as="geometry"/>
                </mxCell>
                <mxCell id="23" value="Client" style="html=1;align=center;verticalAlign=top;rounded=1;absoluteArcSize=1;arcSize=10;dashed=0;" parent="1" vertex="1">
                    <mxGeometry x="73" y="960" width="140" height="40" as="geometry"/>
                </mxCell>
                <mxCell id="24" value="Пылесос" style="html=1;align=center;verticalAlign=top;rounded=1;absoluteArcSize=1;arcSize=10;dashed=0;" parent="1" vertex="1">
                    <mxGeometry x="73" y="800" width="140" height="40" as="geometry"/>
                </mxCell>
                <mxCell id="25" value="Web - сервер" style="html=1;align=center;verticalAlign=top;rounded=1;absoluteArcSize=1;arcSize=10;dashed=0;" parent="1" vertex="1">
                    <mxGeometry x="383" y="870" width="141" height="40" as="geometry"/>
                </mxCell>
                <mxCell id="26" value="" style="endArrow=block;startArrow=none;endFill=0;startFill=0;endSize=8;html=1;verticalAlign=bottom;dashed=1;labelBackgroundColor=none;exitX=1;exitY=0.5;exitDx=0;exitDy=0;entryX=0.5;entryY=1;entryDx=0;entryDy=0;" parent="1" source="23" target="25" edge="1">
                    <mxGeometry width="160" relative="1" as="geometry">
                        <mxPoint x="63" y="910" as="sourcePoint"/>
                        <mxPoint x="223" y="910" as="targetPoint"/>
                        <Array as="points">
                            <mxPoint x="453" y="980"/>
                        </Array>
                    </mxGeometry>
                </mxCell>
                <mxCell id="27" value="Get, Put, Delete, POST" style="text;html=1;align=center;verticalAlign=middle;resizable=0;points=[];autosize=1;strokeColor=none;fillColor=none;" parent="1" vertex="1">
                    <mxGeometry x="263" y="950" width="140" height="20" as="geometry"/>
                </mxCell>
                <mxCell id="29" value="Get, Put" style="endArrow=open;startArrow=none;endFill=0;startFill=0;endSize=8;html=1;verticalAlign=bottom;dashed=1;labelBackgroundColor=none;exitX=1;exitY=0.5;exitDx=0;exitDy=0;entryX=0.5;entryY=0;entryDx=0;entryDy=0;" parent="1" source="24" target="25" edge="1">
                    <mxGeometry width="160" relative="1" as="geometry">
                        <mxPoint x="63" y="910" as="sourcePoint"/>
                        <mxPoint x="223" y="910" as="targetPoint"/>
                        <Array as="points">
                            <mxPoint x="453" y="820"/>
                        </Array>
                    </mxGeometry>
                </mxCell>
                <mxCell id="31" value="" style="endArrow=open;startArrow=none;endFill=0;startFill=0;endSize=8;html=1;verticalAlign=bottom;dashed=1;labelBackgroundColor=none;exitX=0;exitY=0.5;exitDx=0;exitDy=0;entryX=0.5;entryY=1;entryDx=0;entryDy=0;" parent="1" source="25" target="24" edge="1">
                    <mxGeometry width="160" relative="1" as="geometry">
                        <mxPoint x="63" y="910" as="sourcePoint"/>
                        <mxPoint x="223" y="910" as="targetPoint"/>
                        <Array as="points">
                            <mxPoint x="143" y="890"/>
                        </Array>
                    </mxGeometry>
                </mxCell>
                <mxCell id="32" value="POST" style="endArrow=open;startArrow=none;endFill=0;startFill=0;endSize=8;html=1;verticalAlign=bottom;dashed=1;labelBackgroundColor=none;exitX=0;exitY=0.5;exitDx=0;exitDy=0;entryX=0.5;entryY=0;entryDx=0;entryDy=0;" parent="1" source="25" target="23" edge="1">
                    <mxGeometry width="160" relative="1" as="geometry">
                        <mxPoint x="63" y="910" as="sourcePoint"/>
                        <mxPoint x="223" y="910" as="targetPoint"/>
                        <Array as="points">
                            <mxPoint x="143" y="890"/>
                        </Array>
                    </mxGeometry>
                </mxCell>
                <mxCell id="33" value="Base Data" style="html=1;align=center;verticalAlign=top;rounded=1;absoluteArcSize=1;arcSize=10;dashed=0;" parent="1" vertex="1">
                    <mxGeometry x="613" y="870" width="141" height="40" as="geometry"/>
                </mxCell>
                <mxCell id="34" value="" style="endArrow=open;startArrow=none;endFill=0;startFill=0;endSize=8;html=1;verticalAlign=bottom;dashed=1;labelBackgroundColor=none;exitX=1;exitY=0.5;exitDx=0;exitDy=0;entryX=0;entryY=0.5;entryDx=0;entryDy=0;" parent="1" source="25" target="33" edge="1">
                    <mxGeometry width="160" relative="1" as="geometry">
                        <mxPoint x="243" y="910" as="sourcePoint"/>
                        <mxPoint x="403" y="910" as="targetPoint"/>
                    </mxGeometry>
                </mxCell>
                <mxCell id="36" value="SQL" style="edgeLabel;html=1;align=center;verticalAlign=middle;resizable=0;points=[];" parent="34" vertex="1" connectable="0">
                    <mxGeometry x="0.3483" y="1" relative="1" as="geometry">
                        <mxPoint x="-16" y="-8" as="offset"/>
                    </mxGeometry>
                </mxCell>
                <mxCell id="35" value="" style="endArrow=open;startArrow=none;endFill=0;startFill=0;endSize=8;html=1;verticalAlign=bottom;dashed=1;labelBackgroundColor=none;exitX=0;exitY=0.75;exitDx=0;exitDy=0;entryX=1;entryY=0.75;entryDx=0;entryDy=0;" parent="1" source="33" target="25" edge="1">
                    <mxGeometry width="160" relative="1" as="geometry">
                        <mxPoint x="243" y="910" as="sourcePoint"/>
                        <mxPoint x="403" y="910" as="targetPoint"/>
                    </mxGeometry>
                </mxCell>
                <mxCell id="37" value="Создать помещение" style="ellipse;whiteSpace=wrap;html=1;" parent="1" vertex="1">
                    <mxGeometry x="531" y="560" width="110" height="50" as="geometry"/>
                </mxCell>
                <mxCell id="38" value="&amp;lt;&amp;lt;included&amp;gt;&amp;gt;" style="endArrow=open;startArrow=none;endFill=0;startFill=0;endSize=8;html=1;verticalAlign=bottom;dashed=1;labelBackgroundColor=none;exitX=1;exitY=0.5;exitDx=0;exitDy=0;entryX=0;entryY=0.5;entryDx=0;entryDy=0;" parent="1" source="7" target="37" edge="1">
                    <mxGeometry width="160" relative="1" as="geometry">
                        <mxPoint x="459.9999999999984" y="496.0000000000001" as="sourcePoint"/>
                        <mxPoint x="539.999999999997" y="496.0000000000001" as="targetPoint"/>
                    </mxGeometry>
                </mxCell>
            </root>
        </mxGraphModel>
    </diagram>
</mxfile>